<svg width="24" height="19" viewBox="0 0 24 19" fill="none" xmlns="http://www.w3.org/2000/svg">
<path d="M20.4702 2.705C20.8602 3.095 20.8602 3.715 20.4702 4.105L9.1302 15.445C8.7402 15.835 8.1202 15.835 7.7302 15.445L3.5302 11.245C3.1402 10.855 3.1402 10.235 3.5302 9.845C3.9202 9.455 4.5402 9.455 4.9302 9.845L8.4302 13.345L19.0702 2.705C19.4602 2.315 20.0802 2.315 20.4702 2.705ZM18.3602 0.585L8.4302 10.515L5.6402 7.725C4.8602 6.945 3.5902 6.945 2.8102 7.725L1.4102 9.125C0.630195 9.905 0.630195 11.175 1.4102 11.955L7.0102 17.555C7.7902 18.335 9.0602 18.335 9.8402 17.555L22.5902 4.815C23.3702 4.035 23.3702 2.765 22.5902 1.985L21.1902 0.585C20.4002 -0.195 19.1402 -0.195 18.3602 0.585Z" fill="white"/>
</svg>
