<svg width="120" height="56" viewBox="0 0 120 56" fill="none" xmlns="http://www.w3.org/2000/svg">
<path d="M0.000244141 53.9914V2C22.1851 2 32.3532 11.7762 32.3532 27.7735C32.3532 52.6582 9.398 54.1395 0.000244141 53.9914Z" fill="white"/>
<path d="M21.5689 28L0.000244141 33.2201V42.8571L21.5689 28Z" fill="#009688"/>
<path d="M51.6228 22H44.1814V4.72656H51.6228C52.6931 4.74219 53.5837 4.86719 54.2947 5.10156C55.5056 5.5 56.4861 6.23047 57.2361 7.29297C57.8376 8.15234 58.2478 9.08203 58.4666 10.082C58.6853 11.082 58.7947 12.0352 58.7947 12.9414C58.7947 15.2383 58.3337 17.1836 57.4119 18.7773C56.1619 20.9258 54.2322 22 51.6228 22ZM54.3064 9.13281C53.7517 8.19531 52.6541 7.72656 51.0134 7.72656H47.6853V19H51.0134C52.7166 19 53.9041 18.1602 54.5759 16.4805C54.9431 15.5586 55.1267 14.4609 55.1267 13.1875C55.1267 11.4297 54.8533 10.0781 54.3064 9.13281ZM64.6892 9.22656V22H61.3025V9.22656H64.6892ZM64.6892 4.62109V7.70312H61.3025V4.62109H64.6892ZM78.5876 10.8438C79.6658 12.1953 80.2048 13.793 80.2048 15.6367C80.2048 17.5117 79.6658 19.1172 78.5876 20.4531C77.5095 21.7812 75.8728 22.4453 73.6775 22.4453C71.4822 22.4453 69.8455 21.7812 68.7673 20.4531C67.6892 19.1172 67.1501 17.5117 67.1501 15.6367C67.1501 13.793 67.6892 12.1953 68.7673 10.8438C69.8455 9.49219 71.4822 8.81641 73.6775 8.81641C75.8728 8.81641 77.5095 9.49219 78.5876 10.8438ZM73.6658 11.6406C72.6892 11.6406 71.9353 11.9883 71.4041 12.6836C70.8806 13.3711 70.6189 14.3555 70.6189 15.6367C70.6189 16.918 70.8806 17.9062 71.4041 18.6016C71.9353 19.2969 72.6892 19.6445 73.6658 19.6445C74.6423 19.6445 75.3923 19.2969 75.9158 18.6016C76.4392 17.9062 76.7009 16.918 76.7009 15.6367C76.7009 14.3555 76.4392 13.3711 75.9158 12.6836C75.3923 11.9883 74.6423 11.6406 73.6658 11.6406ZM89.0291 12.3086C87.6853 12.3086 86.783 12.7461 86.322 13.6211C86.0642 14.1133 85.9353 14.8711 85.9353 15.8945V22H82.572V9.22656H85.7595V11.4531C86.2751 10.6016 86.7244 10.0195 87.1072 9.70703C87.7322 9.18359 88.5447 8.92188 89.5447 8.92188C89.6072 8.92188 89.658 8.92578 89.697 8.93359C89.7439 8.93359 89.8416 8.9375 89.99 8.94531V12.3672C89.7791 12.3438 89.5916 12.3281 89.4275 12.3203C89.2634 12.3125 89.1306 12.3086 89.0291 12.3086ZM55.5369 32.75V50H52.2908V48.2305C51.8142 48.9883 51.2712 49.5391 50.6619 49.8828C50.0525 50.2266 49.2947 50.3984 48.3884 50.3984C46.8962 50.3984 45.6384 49.7969 44.615 48.5938C43.5994 47.3828 43.0916 45.832 43.0916 43.9414C43.0916 41.7617 43.5916 40.0469 44.5916 38.7969C45.5994 37.5469 46.9431 36.9219 48.6228 36.9219C49.3962 36.9219 50.0837 37.0938 50.6853 37.4375C51.2869 37.7734 51.7751 38.2422 52.1501 38.8438V32.75H55.5369ZM46.5369 43.6953C46.5369 44.875 46.7712 45.8164 47.24 46.5195C47.7009 47.2305 48.4041 47.5859 49.3494 47.5859C50.2947 47.5859 51.0134 47.2344 51.5056 46.5312C51.9978 45.8281 52.2439 44.918 52.2439 43.8008C52.2439 42.2383 51.8494 41.1211 51.0603 40.4492C50.5759 40.043 50.0134 39.8398 49.3728 39.8398C48.3962 39.8398 47.6775 40.2109 47.2166 40.9531C46.7634 41.6875 46.5369 42.6016 46.5369 43.6953ZM69.5173 46.25C69.4314 47.0078 69.0369 47.7773 68.3337 48.5586C67.24 49.8008 65.7087 50.4219 63.74 50.4219C62.115 50.4219 60.6814 49.8984 59.4392 48.8516C58.197 47.8047 57.5759 46.1016 57.5759 43.7422C57.5759 41.5312 58.1345 39.8359 59.2517 38.6562C60.3767 37.4766 61.8337 36.8867 63.6228 36.8867C64.6853 36.8867 65.6423 37.0859 66.4939 37.4844C67.3455 37.8828 68.0486 38.5117 68.6033 39.3711C69.1033 40.1289 69.4275 41.0078 69.5759 42.0078C69.6619 42.5938 69.697 43.4375 69.6814 44.5391H60.9392C60.9861 45.8203 61.3884 46.7188 62.1462 47.2344C62.6072 47.5547 63.1619 47.7148 63.8103 47.7148C64.4978 47.7148 65.0564 47.5195 65.4861 47.1289C65.7205 46.918 65.9275 46.625 66.1072 46.25H69.5173ZM66.2126 42.3359C66.158 41.4531 65.8884 40.7852 65.4041 40.332C64.9275 39.8711 64.3337 39.6406 63.6228 39.6406C62.8494 39.6406 62.2478 39.8828 61.8181 40.3672C61.3962 40.8516 61.1306 41.5078 61.0212 42.3359H66.2126ZM80.7439 37.8125C81.7439 38.4531 82.3181 39.5547 82.4666 41.1172H79.1267C79.0798 40.6875 78.9587 40.3477 78.7634 40.0977C78.3962 39.6445 77.7712 39.418 76.8884 39.418C76.1619 39.418 75.6423 39.5312 75.3298 39.7578C75.0251 39.9844 74.8728 40.25 74.8728 40.5547C74.8728 40.9375 75.0369 41.2148 75.365 41.3867C75.6931 41.5664 76.8533 41.875 78.8455 42.3125C80.1736 42.625 81.1697 43.0977 81.8337 43.7305C82.49 44.3711 82.8181 45.1719 82.8181 46.1328C82.8181 47.3984 82.3455 48.4336 81.4001 49.2383C80.4626 50.0352 79.0095 50.4336 77.0408 50.4336C75.033 50.4336 73.5486 50.0117 72.5876 49.168C71.6345 48.3164 71.158 47.2344 71.158 45.9219H74.5447C74.615 46.5156 74.7673 46.9375 75.0017 47.1875C75.4158 47.6328 76.1814 47.8555 77.2986 47.8555C77.9548 47.8555 78.4744 47.7578 78.8572 47.5625C79.2478 47.3672 79.4431 47.0742 79.4431 46.6836C79.4431 46.3086 79.2869 46.0234 78.9744 45.8281C78.6619 45.6328 77.5017 45.2969 75.4939 44.8203C74.0486 44.4609 73.0291 44.0117 72.4353 43.4727C71.8416 42.9414 71.5447 42.1758 71.5447 41.1758C71.5447 39.9961 72.0056 38.9844 72.9275 38.1406C73.8572 37.2891 75.1619 36.8633 76.8416 36.8633C78.4353 36.8633 79.7361 37.1797 80.7439 37.8125ZM88.7361 37.2266V50H85.3494V37.2266H88.7361ZM88.7361 32.6211V35.7031H85.3494V32.6211H88.7361ZM95.5916 52.2383C95.9509 52.543 96.5564 52.6953 97.408 52.6953C98.6111 52.6953 99.4158 52.293 99.822 51.4883C100.088 50.9727 100.22 50.1055 100.22 48.8867V48.0664C99.9001 48.6133 99.5564 49.0234 99.1892 49.2969C98.5251 49.8047 97.6619 50.0586 96.5994 50.0586C94.9587 50.0586 93.6462 49.4844 92.6619 48.3359C91.6853 47.1797 91.197 45.6172 91.197 43.6484C91.197 41.75 91.6697 40.1562 92.615 38.8672C93.5603 37.5703 94.9001 36.9219 96.6345 36.9219C97.2751 36.9219 97.8337 37.0195 98.3103 37.2148C99.1228 37.5508 99.7791 38.168 100.279 39.0664V37.2266H103.525V49.3438C103.525 50.9922 103.248 52.2344 102.693 53.0703C101.74 54.5078 99.9119 55.2266 97.2087 55.2266C95.5759 55.2266 94.2439 54.9062 93.2126 54.2656C92.1814 53.625 91.6111 52.668 91.5017 51.3945H95.1345C95.2283 51.7852 95.3806 52.0664 95.5916 52.2383ZM95.0291 45.6406C95.4822 46.7188 96.2947 47.2578 97.4666 47.2578C98.2478 47.2578 98.908 46.9648 99.447 46.3789C99.9861 45.7852 100.256 44.8438 100.256 43.5547C100.256 42.3438 99.9978 41.4219 99.4822 40.7891C98.9744 40.1562 98.2908 39.8398 97.4314 39.8398C96.2595 39.8398 95.4509 40.3906 95.0056 41.4922C94.7712 42.0781 94.6541 42.8008 94.6541 43.6602C94.6541 44.4023 94.7791 45.0625 95.0291 45.6406ZM112.666 39.6992C111.533 39.6992 110.756 40.1797 110.334 41.1406C110.115 41.6484 110.006 42.2969 110.006 43.0859V50H106.677V37.25H109.9V39.1133C110.33 38.457 110.736 37.9844 111.119 37.6953C111.806 37.1797 112.677 36.9219 113.732 36.9219C115.052 36.9219 116.131 37.2695 116.967 37.9648C117.81 38.6523 118.232 39.7969 118.232 41.3984V50H114.81V42.2305C114.81 41.5586 114.72 41.043 114.541 40.6836C114.213 40.0273 113.588 39.6992 112.666 39.6992Z" fill="white"/>
</svg>
