<svg width="21" height="21" viewBox="0 0 21 21" fill="none" xmlns="http://www.w3.org/2000/svg">
<g clip-path="url(#clip0_0_1058)">
<path d="M5.28623 0.1875C4.88301 0.1875 4.55615 0.51729 4.55615 0.924121V2.39732H6.01626V0.924121C6.01626 0.51729 5.6894 0.1875 5.28623 0.1875Z" fill="white"/>
<path d="M15.5069 0.1875C15.1037 0.1875 14.7769 0.51729 14.7769 0.924121V2.39732H16.237V0.924121C16.237 0.51729 15.9101 0.1875 15.5069 0.1875Z" fill="white"/>
<path d="M18.4273 2.39734H16.2371V5.34378C16.2371 5.75061 15.9102 6.0804 15.507 6.0804C15.1038 6.0804 14.7769 5.75061 14.7769 5.34378V2.39734H6.01624V5.34378C6.01624 5.75061 5.68938 6.0804 5.28617 6.0804C4.88295 6.0804 4.55609 5.75061 4.55609 5.34378V2.39734H2.36596C1.15636 2.39734 0.175781 3.38671 0.175781 4.60716V18.6027C0.175781 19.8232 1.15636 20.8125 2.36596 20.8125H18.4273C19.6369 20.8125 20.6174 19.8232 20.6174 18.6027V4.60716C20.6174 3.38671 19.6369 2.39734 18.4273 2.39734ZM19.1573 18.6027C19.1573 19.0095 18.8304 19.3393 18.4272 19.3393H2.36596C1.96274 19.3393 1.63589 19.0095 1.63589 18.6027V9.0268H19.1573V18.6027Z" fill="white"/>
<path d="M6.01635 10.5H4.55625C4.15303 10.5 3.82617 10.8298 3.82617 11.2366C3.82617 11.6435 4.15303 11.9733 4.55625 11.9733H6.01635C6.41957 11.9733 6.74643 11.6435 6.74643 11.2366C6.74643 10.8298 6.41957 10.5 6.01635 10.5Z" fill="white"/>
<path d="M11.1267 10.5H9.6666C9.26338 10.5 8.93652 10.8298 8.93652 11.2366C8.93652 11.6435 9.26338 11.9733 9.6666 11.9733H11.1267C11.5299 11.9733 11.8568 11.6435 11.8568 11.2366C11.8568 10.8298 11.5299 10.5 11.1267 10.5Z" fill="white"/>
<path d="M16.2371 10.5H14.7769C14.3737 10.5 14.0469 10.8298 14.0469 11.2366C14.0469 11.6435 14.3737 11.9733 14.7769 11.9733H16.2371C16.6403 11.9733 16.9671 11.6435 16.9671 11.2366C16.9671 10.8298 16.6402 10.5 16.2371 10.5Z" fill="white"/>
<path d="M6.01635 13.4464H4.55625C4.15303 13.4464 3.82617 13.7762 3.82617 14.183C3.82617 14.5899 4.15303 14.9197 4.55625 14.9197H6.01635C6.41957 14.9197 6.74643 14.5899 6.74643 14.183C6.74643 13.7762 6.41957 13.4464 6.01635 13.4464Z" fill="white"/>
<path d="M11.1267 13.4464H9.6666C9.26338 13.4464 8.93652 13.7762 8.93652 14.183C8.93652 14.5899 9.26338 14.9197 9.6666 14.9197H11.1267C11.5299 14.9197 11.8568 14.5899 11.8568 14.183C11.8568 13.7762 11.5299 13.4464 11.1267 13.4464Z" fill="white"/>
<path d="M16.2371 13.4464H14.7769C14.3737 13.4464 14.0469 13.7762 14.0469 14.183C14.0469 14.5899 14.3737 14.9197 14.7769 14.9197H16.2371C16.6403 14.9197 16.9671 14.5899 16.9671 14.183C16.9671 13.7762 16.6402 13.4464 16.2371 13.4464Z" fill="white"/>
<path d="M6.01635 16.3928H4.55625C4.15303 16.3928 3.82617 16.7226 3.82617 17.1294C3.82617 17.5363 4.15303 17.866 4.55625 17.866H6.01635C6.41957 17.866 6.74643 17.5362 6.74643 17.1294C6.74643 16.7226 6.41957 16.3928 6.01635 16.3928Z" fill="white"/>
<path d="M11.1267 16.3928H9.6666C9.26338 16.3928 8.93652 16.7226 8.93652 17.1294C8.93652 17.5363 9.26338 17.8661 9.6666 17.8661H11.1267C11.5299 17.8661 11.8568 17.5363 11.8568 17.1294C11.8568 16.7226 11.5299 16.3928 11.1267 16.3928Z" fill="white"/>
<path d="M16.2371 16.3928H14.7769C14.3737 16.3928 14.0469 16.7226 14.0469 17.1294C14.0469 17.5363 14.3737 17.8661 14.7769 17.8661H16.2371C16.6403 17.8661 16.9671 17.5363 16.9671 17.1294C16.9671 16.7226 16.6402 16.3928 16.2371 16.3928Z" fill="white"/>
</g>
<defs>
<clipPath id="clip0_0_1058">
<rect width="20.4417" height="20.625" fill="white" transform="translate(0.175781 0.1875)"/>
</clipPath>
</defs>
</svg>
