<svg width="61" height="75" viewBox="0 0 61 75" fill="none" xmlns="http://www.w3.org/2000/svg">
<g clip-path="url(#clip0_0_964)">
<mask id="mask0_0_964" style="mask-type:luminance" maskUnits="userSpaceOnUse" x="2" y="27" width="181" height="36">
<path d="M182.727 27.8918H2.82422V62.7567H182.727V27.8918Z" fill="white"/>
</mask>
<g mask="url(#mask0_0_964)">
<path fill-rule="evenodd" clip-rule="evenodd" d="M73.812 55.163C67.1642 60.1184 57.5248 62.7546 49.2242 62.7546C37.593 62.7546 27.1174 58.4115 19.1891 51.1802C18.5674 50.6112 19.1209 49.8375 19.8693 50.2765C28.4213 55.3048 38.9982 58.3327 49.922 58.3327C57.2909 58.3327 65.3907 56.7872 72.8454 53.5939C73.9699 53.1135 74.9132 54.342 73.812 55.163Z" fill="#F79C34"/>
<path fill-rule="evenodd" clip-rule="evenodd" d="M68.9673 31.7241V29.1017C68.9693 28.702 69.2675 28.4362 69.6261 28.4382H81.2671C81.6393 28.4382 81.9395 28.7099 81.9395 29.0997V31.35C81.9356 31.728 81.6198 32.2202 81.0624 33.0018L75.0324 41.6998C77.2698 41.6466 79.6378 41.9853 81.6725 43.1409C82.1305 43.4008 82.2552 43.7867 82.2903 44.1647V46.9643C82.2903 47.3502 81.8732 47.7971 81.4327 47.5648C77.8506 45.6688 73.0952 45.4621 69.133 47.5884C68.7276 47.8069 68.3047 47.3659 68.3047 46.98V44.3183C68.3047 43.893 68.3125 43.1646 68.7374 42.5149L75.7223 32.3895H69.6397C69.2675 32.3895 68.9693 32.1218 68.9673 31.728V31.7241ZM26.5038 48.1121H22.9626C22.6254 48.0904 22.3565 47.8345 22.3292 47.5077L22.3331 29.145C22.3331 28.7788 22.6391 28.4855 23.0172 28.4855H26.3148C26.6597 28.5012 26.9365 28.765 26.9579 29.1017V31.4977H27.0261C27.8856 29.1785 29.5052 28.0976 31.6861 28.0976C33.8669 28.0976 35.2896 29.1804 36.2817 31.4977C37.1411 29.1785 39.092 28.0976 41.1735 28.0976C42.6625 28.0976 44.2801 28.7158 45.2721 30.1077C46.3967 31.6532 46.1667 33.8936 46.1667 35.8644L46.1628 47.4525C46.1628 47.8187 45.8587 48.1121 45.4807 48.1121H41.9433C41.5867 48.0884 41.308 47.8049 41.308 47.4525V37.719C41.308 36.9472 41.3723 35.0158 41.2066 34.2815C40.9435 33.0431 40.1503 32.6966 39.1252 32.6966C38.2657 32.6966 37.3731 33.2755 37.0086 34.2027C36.6442 35.132 36.6792 36.6755 36.6792 37.719V47.4525C36.6792 47.8187 36.3733 48.1121 35.9971 48.1121H32.4598C32.1031 48.0884 31.8244 47.8049 31.8244 47.4525L31.8205 37.719C31.8205 35.6714 32.1519 32.6592 29.6397 32.6592C27.1275 32.6592 27.1938 35.5947 27.1938 37.719V47.4525C27.1918 47.8187 26.8858 48.1121 26.5097 48.1121H26.5038ZM91.9901 31.8461C89.3786 31.8461 89.2129 35.4391 89.2129 37.6796C89.2129 39.92 89.1798 44.712 91.957 44.712C94.7342 44.712 94.8336 40.8473 94.8336 38.4907C94.8336 36.9452 94.7654 35.0907 94.3035 33.622C93.9079 32.3462 93.1127 31.8442 91.9882 31.8442L91.9901 31.8461ZM91.959 28.0976C97.2152 28.0976 100.057 32.6592 100.057 38.4533C100.057 44.2474 96.9171 48.498 91.959 48.498C87.0009 48.498 83.9917 43.9383 83.9917 38.2584C83.9917 32.5785 86.8332 28.0976 91.959 28.0976ZM106.874 48.1121H103.345C102.992 48.0884 102.709 47.8049 102.709 47.4525L102.703 29.084C102.735 28.7473 103.027 28.4855 103.384 28.4855H106.668C106.977 28.5012 107.233 28.7138 107.297 28.9973V31.8068H107.363C108.355 29.2946 109.743 28.0976 112.189 28.0976C113.775 28.0976 115.331 28.6764 116.323 30.2613C117.248 31.73 117.248 34.2008 117.248 35.9786V47.5333C117.209 47.8581 116.921 48.1101 116.57 48.1101H113.021C112.694 48.0904 112.429 47.8463 112.39 47.5333V37.5634C112.39 35.5533 112.622 32.6159 110.176 32.6159C109.316 32.6159 108.523 33.1947 108.125 34.0846C107.628 35.2048 107.562 36.3251 107.562 37.5634V47.4506C107.556 47.8168 107.25 48.1101 106.872 48.1101L106.874 48.1121ZM63.255 48.0668C63.0211 48.2794 62.6839 48.2932 62.4189 48.1495C61.2437 47.1612 61.0312 46.7064 60.3881 45.7653C58.445 47.7656 57.0671 48.366 54.5491 48.366C51.5672 48.366 49.248 46.5075 49.248 42.7905C49.248 39.8866 50.8071 37.9119 53.025 36.9433C54.9466 36.0908 57.6303 35.9372 59.6845 35.7029V35.2383C59.6845 34.3839 59.7508 33.3798 59.2538 32.6435C58.8231 31.9839 57.9948 31.7142 57.2659 31.7142C55.9153 31.7142 54.7147 32.4131 54.4185 33.8621C54.3561 34.185 54.1242 34.504 53.8046 34.5217L50.3705 34.1457C50.0802 34.0787 49.7586 33.8444 49.8424 33.3975C50.6239 29.2493 54.2918 27.9559 57.6245 27.9224H57.8876C59.5929 27.944 61.7718 28.4165 63.0991 29.7021C64.8219 31.3283 64.6563 33.4979 64.6563 35.8604V41.434C64.6563 43.1114 65.3462 43.8458 65.9932 44.7494C66.2213 45.0762 66.27 45.4621 65.9815 45.7003C65.2585 46.3126 63.9722 47.4407 63.2667 48.0766L63.2569 48.0688L63.255 48.0668ZM59.6865 39.3452C59.6865 40.739 59.7196 41.9006 59.0238 43.1409C58.4606 44.147 57.566 44.7671 56.5721 44.7671C55.2137 44.7671 54.4204 43.7217 54.4204 42.1723C54.4204 39.1247 57.1256 38.5714 59.6884 38.5714V39.3471L59.6865 39.3452ZM16.8312 48.0668C16.5974 48.2794 16.2583 48.2932 15.9952 48.1495C14.818 47.1612 14.6075 46.7064 13.9644 45.7653C12.0193 47.7656 10.6434 48.366 8.12533 48.366C5.14346 48.366 2.82422 46.5075 2.82422 42.7905C2.82422 39.8866 4.38142 37.9119 6.60126 36.9433C8.52292 36.0908 11.2066 35.9372 13.2588 35.7029V35.2383C13.2588 34.3839 13.3271 33.3798 12.8281 32.6435C12.3974 31.9839 11.5691 31.7142 10.8402 31.7142C9.48959 31.7142 8.2871 32.4131 7.99281 33.8621C7.93239 34.185 7.69852 34.504 7.37694 34.5217L3.94486 34.1457C3.65447 34.0787 3.33289 33.8444 3.4167 33.3975C4.19627 29.2493 7.86418 27.9559 11.1988 27.9224H11.4619C13.1672 27.944 15.3462 28.4165 16.6734 29.7021C18.3962 31.3283 18.2306 33.4979 18.2306 35.8604V41.434C18.2306 43.1114 18.9205 43.8458 19.5676 44.7494C19.7936 45.0762 19.8443 45.4621 19.5559 45.7003C18.8328 46.3126 17.5465 47.4407 16.839 48.0766L16.8312 48.0688V48.0668ZM13.2608 39.3452C13.2608 40.739 13.2939 41.9006 12.5981 43.1409C12.0349 44.147 11.1403 44.7671 10.1464 44.7671C8.78797 44.7671 7.99475 43.7217 7.99475 42.1723C7.99475 39.1247 10.6999 38.5714 13.2627 38.5714V39.3471L13.2608 39.3452ZM165.664 54.6996V53.351C165.664 52.967 165.851 52.7032 166.247 52.7269C166.987 52.8332 168.034 52.9395 168.776 52.784C169.747 52.5792 170.443 51.8842 170.854 50.9333C171.435 49.5926 171.819 48.5117 172.06 47.803L164.693 29.3655C164.569 29.0525 164.532 28.4717 165.151 28.4717H167.726C168.217 28.4717 168.418 28.7867 168.527 29.0958L173.869 44.0722L178.967 29.0958C179.071 28.7886 179.281 28.4717 179.768 28.4717H182.197C182.811 28.4717 182.778 29.0505 182.655 29.3655L175.346 48.3779C174.401 50.9077 173.14 54.9398 170.302 55.6387C168.88 56.0147 167.085 55.8789 166.03 55.4319C165.765 55.2961 165.662 54.9358 165.662 54.6996H165.664ZM162.228 46.9899C162.228 47.3324 161.949 47.614 161.608 47.614H159.792C159.4 47.614 159.131 47.3285 159.082 46.9899L158.899 45.7417C158.065 46.4544 157.04 47.0824 155.929 47.5195C153.793 48.3582 151.329 48.496 149.242 47.2005C147.734 46.2654 146.931 44.4344 146.931 42.5483C146.931 41.0875 147.377 39.6405 148.363 38.5892C149.681 37.152 151.591 36.4471 153.898 36.4471C155.292 36.4471 157.285 36.6125 158.735 37.0909V34.5768C158.735 32.0214 157.671 30.9149 154.863 30.9149C152.717 30.9149 151.074 31.2417 148.79 31.9603C148.424 31.9721 148.209 31.6926 148.209 31.348V29.9148C148.209 29.5702 148.5 29.2375 148.815 29.1371C150.447 28.4185 152.758 27.9716 155.216 27.8889C158.42 27.8889 162.226 28.6193 162.226 33.5964V46.9879L162.228 46.9899ZM158.737 43.3201V39.5283C157.519 39.1916 155.502 39.0518 154.721 39.0518C153.487 39.0518 152.136 39.3471 151.431 40.113C150.905 40.676 150.665 41.4832 150.665 42.2629C150.665 43.2709 151.01 44.2848 151.817 44.7849C152.754 45.4286 154.208 45.3499 155.576 44.9581C156.89 44.5821 158.123 43.9147 158.735 43.3221L158.737 43.3201ZM135.45 30.974C139.48 30.974 140.577 34.1752 140.577 37.841C140.601 40.3118 140.15 42.5149 138.884 43.7769C137.936 44.7219 136.876 44.9778 135.282 44.9778C133.863 44.9778 131.998 44.2297 130.603 43.1902V32.7085C132.054 31.5823 133.906 30.974 135.45 30.974ZM129.985 55.3571H127.552C127.211 55.3571 126.935 55.0756 126.935 54.733V29.1273C126.935 28.7847 127.213 28.5032 127.552 28.5032H129.414C129.805 28.5032 130.072 28.7886 130.123 29.1273L130.318 30.468C132.062 28.9048 134.307 27.9007 136.445 27.9007C142.436 27.9007 144.407 32.8876 144.407 38.0733C144.407 43.6213 141.394 48.0806 136.295 48.0806C134.15 48.0806 132.142 47.2813 130.599 45.8913V54.733C130.599 55.0756 130.32 55.3571 129.981 55.3571H129.985Z" fill="#333E47"/>
</g>
</g>
<defs>
<clipPath id="clip0_0_964">
<rect width="179.903" height="34.8649" fill="white" transform="translate(2.82422 27.8918)"/>
</clipPath>
</defs>
</svg>
