<svg width="187" height="75" viewBox="0 0 187 75" fill="none" xmlns="http://www.w3.org/2000/svg">
<path d="M172.841 48.4171H167.78C166.733 48.4171 165.859 47.7237 165.859 46.857C165.859 45.8169 166.733 45.2968 167.78 45.2968H177.028L179.124 40.62H167.78C163.069 40.62 160.45 43.39 160.45 47.0303C160.45 50.6706 163.069 53.0939 167.082 53.0939H172.142C173.19 53.0939 174.063 53.7873 174.063 54.654C174.063 55.5208 173.365 56.2142 172.142 56.2142H160.974V60.891H172.142C176.854 60.891 179.473 58.121 179.473 54.3074C179.473 50.4937 177.028 48.4171 172.841 48.4171ZM152.424 48.4171H147.364C146.316 48.4171 145.443 47.7237 145.443 46.857C145.443 45.8169 146.316 45.2968 147.364 45.2968H156.611L158.707 40.62H147.364C142.652 40.62 140.037 43.39 140.037 47.0303C140.037 50.6706 142.652 53.0939 146.669 53.0939H151.729C152.777 53.0939 153.65 53.7873 153.65 54.654C153.65 55.5208 152.952 56.2142 151.729 56.2142H140.56V60.891H151.729C156.441 60.891 159.056 58.121 159.056 54.3074C159.231 50.4973 156.79 48.4171 152.424 48.4171ZM120.144 61.0607H137.595V56.3839H125.728V53.0939H137.421V48.4171H125.728V45.1271H137.595V40.4503H120.144V61.0643V61.0607ZM109.324 49.2839H103.565V45.1271H109.324C110.896 45.1271 111.769 46.1672 111.769 47.2073C111.769 48.4207 110.896 49.2875 109.324 49.2875M117.35 47.0339C117.35 43.0505 114.556 40.4503 110.019 40.4503H97.9771V61.0643H103.562V53.9643H105.657L111.94 61.0643H118.572L111.765 53.6176C115.254 52.7508 117.35 50.3276 117.35 47.0339ZM87.5104 49.6342H81.5768V45.1307H87.5104C89.0821 45.1307 89.9552 46.1708 89.9552 47.3842C89.9552 48.5977 89.2567 49.6378 87.5104 49.6378M88.2089 40.4575H76.167V61.0716H81.7514V54.3146H88.2089C92.9202 54.3146 95.7142 51.3713 95.7142 47.3842C95.5396 43.2275 92.7492 40.4539 88.2089 40.4539M75.1229 40.4539H67.9705L62.7353 46.6909L57.3256 40.4539H49.9949L59.2428 50.6743L49.8203 61.0679H56.9727L62.5571 54.4843L68.1415 61.0679H75.4685L66.046 50.5009L75.1192 40.4539H75.1229ZM31.6737 61.0679H49.1218V56.3911H37.0798V53.1011H48.7725V48.4243H37.0798V45.1343H49.1218V40.4575H31.6737V61.0716V61.0679ZM170.745 26.5897L162.196 14.1194H155.214V34.5601H160.799V21.5662L169.523 34.5565H176.155V14.1194H170.745V26.5933V26.5897ZM138.636 25.8963L141.601 18.9659L144.566 25.8963H138.632H138.636ZM137.937 14.1158L128.864 34.7298H134.972L136.719 30.5731H146.316L148.062 34.7298H154.345L145.097 14.1194H137.941L137.937 14.1158ZM119.791 24.5095V24.1628C119.791 21.0461 121.537 18.9659 125.026 18.9659H131.134V13.946H124.502C117.695 13.946 114.206 18.2761 114.206 23.993V24.3397C114.206 30.75 118.219 34.3867 124.327 34.3867H126.248L128.515 29.7099H125.201C121.886 29.8833 119.791 27.9764 119.791 24.5131M105.832 34.5601H111.416V14.1194H105.832V34.5601ZM95.0121 22.7796H89.2531V18.6228H95.0121C96.5837 18.6228 97.4569 19.6629 97.4569 20.703C97.4569 21.9165 96.5837 22.7832 95.0121 22.7832M103.038 20.703C103.038 16.7196 100.244 14.1194 95.7106 14.1194H83.6687V34.7334H89.2531V27.46H91.3486L97.6315 34.5637H104.438L97.4605 27.1169C100.949 26.4235 103.045 23.8269 103.045 20.7066M62.5607 34.5637H80.0088V29.8869H68.1415V26.5969H79.6595V21.9201H68.1415V18.6301H80.0088V14.1194H62.5607V34.5601V34.5637ZM44.938 26.94L40.2231 14.1194H31.6737V34.5601H37.0835V19.8363L42.4932 34.5601H47.3791L52.7889 19.8363V34.5601H58.3733V14.1194H49.6493L44.938 26.9363V26.94ZM14.9241 25.8999L17.8891 18.9695L20.8541 25.8999H14.9205H14.9241ZM14.222 14.1194L5.14868 34.5601H11.257L13.0032 30.4033H22.6004L24.3467 34.5601H30.6296L21.378 14.1194H14.222Z" fill="#006FCF"/>
</svg>
