<svg width="24" height="24" viewBox="0 0 24 24" fill="none" xmlns="http://www.w3.org/2000/svg">
<path d="M16.0172 2H7.94724C6.3704 2.00185 4.85868 2.62914 3.74377 3.74424C2.62887 4.85933 2.00183 6.37115 2.00024 7.948L2.00024 16.018C2.0021 17.5948 2.62939 19.1066 3.74448 20.2215C4.85957 21.3364 6.3714 21.9634 7.94824 21.965H16.0182C17.5951 21.9631 19.1068 21.3359 20.2217 20.2208C21.3366 19.1057 21.9637 17.5938 21.9652 16.017V7.947C21.9634 6.37015 21.3361 4.85844 20.221 3.74353C19.1059 2.62862 17.5941 2.00159 16.0172 2V2ZM19.9572 16.017C19.9572 16.5344 19.8553 17.0468 19.6573 17.5248C19.4593 18.0028 19.1691 18.4371 18.8032 18.803C18.4374 19.1689 18.003 19.4591 17.525 19.6571C17.047 19.8551 16.5347 19.957 16.0172 19.957H7.94724C6.90246 19.9567 5.90057 19.5415 5.16189 18.8026C4.42321 18.0638 4.00824 17.0618 4.00824 16.017V7.947C4.00851 6.90222 4.42373 5.90032 5.1626 5.16165C5.90146 4.42297 6.90346 4.008 7.94824 4.008H16.0182C17.063 4.00827 18.0649 4.42349 18.8036 5.16235C19.5423 5.90122 19.9572 6.90322 19.9572 7.948V16.018V16.017Z" fill="white"/>
<path d="M11.9823 6.81885C10.6137 6.82096 9.30184 7.36563 8.33421 8.33345C7.36658 9.30127 6.82216 10.6133 6.82031 11.9818C6.8219 13.3508 7.36634 14.6632 8.33421 15.6312C9.30209 16.5993 10.6144 17.144 11.9833 17.1458C13.3524 17.1443 14.665 16.5997 15.6331 15.6316C16.6012 14.6635 17.1457 13.3509 17.1473 11.9818C17.1452 10.6129 16.6003 9.30073 15.632 8.33304C14.6637 7.36535 13.3512 6.82117 11.9823 6.81985V6.81885ZM11.9823 15.1378C11.1456 15.1378 10.3431 14.8054 9.75139 14.2138C9.15971 13.6221 8.82731 12.8196 8.82731 11.9828C8.82731 11.1461 9.15971 10.3436 9.75139 9.75193C10.3431 9.16025 11.1456 8.82785 11.9823 8.82785C12.8191 8.82785 13.6216 9.16025 14.2132 9.75193C14.8049 10.3436 15.1373 11.1461 15.1373 11.9828C15.1373 12.8196 14.8049 13.6221 14.2132 14.2138C13.6216 14.8054 12.8191 15.1378 11.9823 15.1378Z" fill="white"/>
<path d="M17.1562 8.09509C17.8394 8.09509 18.3932 7.54127 18.3932 6.85809C18.3932 6.17492 17.8394 5.62109 17.1562 5.62109C16.473 5.62109 15.9192 6.17492 15.9192 6.85809C15.9192 7.54127 16.473 8.09509 17.1562 8.09509Z" fill="white"/>
</svg>
