<svg width="24" height="24" viewBox="0 0 24 24" fill="none" xmlns="http://www.w3.org/2000/svg">
<path d="M22.0002 5.90716C21.2506 6.23454 20.4567 6.4492 19.6442 6.54416C20.497 6.0434 21.1383 5.24927 21.4482 4.31016C20.6402 4.78049 19.759 5.11177 18.8412 5.29016C18.4548 4.88537 17.9899 4.56355 17.475 4.34434C16.9601 4.12513 16.4059 4.01313 15.8462 4.01516C13.5802 4.01516 11.7432 5.82516 11.7432 8.05516C11.7432 8.37116 11.7792 8.68016 11.8492 8.97516C10.2238 8.89786 8.63236 8.48257 7.17641 7.7558C5.72046 7.02903 4.432 6.00674 3.39324 4.75416C3.02907 5.36857 2.83766 6.06994 2.83924 6.78416C2.83994 7.45213 3.00707 8.10939 3.32553 8.69656C3.644 9.28372 4.10375 9.78228 4.66324 10.1472C4.01273 10.1262 3.37627 9.95249 2.80524 9.64016V9.69016C2.80524 11.6482 4.22024 13.2812 6.09524 13.6532C5.74285 13.7467 5.37983 13.7941 5.01524 13.7942C4.75024 13.7942 4.49324 13.7692 4.24224 13.7192C4.51033 14.5271 5.02335 15.2315 5.71006 15.7345C6.39677 16.2375 7.22309 16.5142 8.07424 16.5262C6.61431 17.6507 4.82206 18.2582 2.97924 18.2532C2.64724 18.2532 2.32124 18.2332 2.00024 18.1972C3.8815 19.3879 6.06284 20.0184 8.28924 20.0152C15.8362 20.0152 19.9622 13.8582 19.9622 8.51916L19.9482 7.99616C20.7531 7.42983 21.4484 6.72201 22.0002 5.90716Z" fill="white"/>
</svg>
