<svg width="24" height="24" viewBox="0 0 24 24" fill="none" xmlns="http://www.w3.org/2000/svg">
<path d="M17.8122 5.01711H6.14524C3.85524 5.01711 2.00024 6.85211 2.00024 9.11611V14.8841C2.00024 17.1481 3.85624 18.9841 6.14524 18.9841H17.8122C20.1022 18.9841 21.9572 17.1481 21.9572 14.8841V9.11611C21.9572 6.85211 20.1012 5.01611 17.8122 5.01611V5.01711ZM15.0092 12.2801L9.55224 14.8551C9.51896 14.8711 9.48216 14.8785 9.44528 14.8765C9.40839 14.8744 9.37261 14.8631 9.34128 14.8436C9.30994 14.824 9.28406 14.7968 9.26605 14.7646C9.24803 14.7323 9.23847 14.6961 9.23824 14.6591V9.35011C9.23891 9.31299 9.24896 9.27663 9.26747 9.24444C9.28597 9.21224 9.31232 9.18526 9.34406 9.16599C9.37581 9.14673 9.41191 9.13581 9.44901 9.13425C9.48611 9.1327 9.523 9.14057 9.55624 9.15711L15.0142 11.8921C15.0506 11.9102 15.0811 11.9383 15.1023 11.9729C15.1234 12.0076 15.1343 12.0476 15.1338 12.0882C15.1333 12.1288 15.1213 12.1685 15.0993 12.2026C15.0773 12.2367 15.0461 12.2639 15.0092 12.2811V12.2801Z" fill="white"/>
</svg>
